<svg width="22" height="22" viewBox="0 0 22 22" fill="none" xmlns="http://www.w3.org/2000/svg">
<path d="M10.9997 1.8335C5.93967 1.8335 1.83301 5.94016 1.83301 11.0002C1.83301 16.0602 5.93967 20.1668 10.9997 20.1668C16.0597 20.1668 20.1663 16.0602 20.1663 11.0002C20.1663 5.94016 16.0597 1.8335 10.9997 1.8335ZM14.208 11.6877H9.45051L11.0272 13.2643C11.293 13.5302 11.293 13.9702 11.0272 14.236C10.8897 14.3735 10.7155 14.4377 10.5413 14.4377C10.3672 14.4377 10.193 14.3735 10.0555 14.236L7.30551 11.486C7.03967 11.2202 7.03967 10.7802 7.30551 10.5143L10.0555 7.76433C10.3213 7.4985 10.7613 7.4985 11.0272 7.76433C11.293 8.03016 11.293 8.47016 11.0272 8.736L9.45051 10.3127H14.208C14.5838 10.3127 14.8955 10.6243 14.8955 11.0002C14.8955 11.376 14.5838 11.6877 14.208 11.6877Z" fill="#5392FB"/>
</svg>
