<svg width="20" height="20" viewBox="0 0 20 20" fill="none" xmlns="http://www.w3.org/2000/svg">
<path d="M6.8891 12.2334C6.73577 12.2334 6.63243 12.2484 6.5791 12.2634V13.2451C6.64243 13.2601 6.7216 13.2642 6.83077 13.2642C7.22993 13.2642 7.47577 13.0626 7.47577 12.7217C7.47577 12.4167 7.2641 12.2334 6.8891 12.2334ZM9.79492 12.2434C9.62825 12.2434 9.51992 12.2584 9.45575 12.2734V14.4484C9.51992 14.4634 9.62325 14.4634 9.71658 14.4634C10.3974 14.4684 10.8408 14.0934 10.8408 13.3001C10.8458 12.6084 10.4416 12.2434 9.79492 12.2434Z" fill="#9A9EA4"/>
<path d="M11.6663 1.6665H4.99967C4.55765 1.6665 4.13372 1.8421 3.82117 2.15466C3.5086 2.46722 3.33301 2.89115 3.33301 3.33317V16.6665C3.33301 17.1085 3.5086 17.5324 3.82117 17.845C4.13372 18.1576 4.55765 18.3332 4.99967 18.3332H14.9997C15.4417 18.3332 15.8656 18.1576 16.1782 17.845C16.4908 17.5324 16.6663 17.1085 16.6663 16.6665V6.6665L11.6663 1.6665ZM7.91467 13.4915C7.65717 13.7332 7.27717 13.8415 6.83467 13.8415C6.74887 13.8424 6.66312 13.8374 6.57801 13.8265V15.0148H5.83301V11.7348C6.16922 11.6847 6.50894 11.6618 6.84884 11.6665C7.31301 11.6665 7.64301 11.7548 7.86551 11.9323C8.07717 12.1007 8.22051 12.3765 8.22051 12.7015C8.21967 13.0282 8.11134 13.304 7.91467 13.4915ZM11.0872 14.6207C10.7372 14.9115 10.2047 15.0498 9.55384 15.0498C9.16384 15.0498 8.88801 15.0248 8.70051 14.9998V11.7357C9.03684 11.6866 9.37642 11.6634 9.71634 11.6665C10.3472 11.6665 10.7572 11.7798 11.0772 12.0215C11.423 12.2782 11.6397 12.6873 11.6397 13.2748C11.6397 13.9107 11.4072 14.3498 11.0872 14.6207ZM14.1663 12.3082H12.8897V13.0673H14.083V13.679H12.8897V15.0157H12.1347V11.6915H14.1663V12.3082ZM11.6663 7.49984H10.833V3.33317L14.9997 7.49984H11.6663Z" fill="#9A9EA4"/>
</svg>
