<svg width="20" height="20" viewBox="0 0 20 20" fill="none" xmlns="http://www.w3.org/2000/svg">
<path d="M6.9082 5.2415C6.5582 5.2415 6.2832 4.95817 6.2832 4.6165V2.2915C6.2832 1.94984 6.5582 1.6665 6.9082 1.6665C7.2582 1.6665 7.5332 1.94984 7.5332 2.2915V4.60817C7.5332 4.95817 7.2582 5.2415 6.9082 5.2415Z" fill="#DA5E42"/>
<path d="M13.0918 5.2415C12.7418 5.2415 12.4668 4.95817 12.4668 4.6165V2.2915C12.4668 1.9415 12.7501 1.6665 13.0918 1.6665C13.4418 1.6665 13.7168 1.94984 13.7168 2.2915V4.60817C13.7168 4.95817 13.4418 5.2415 13.0918 5.2415Z" fill="#DA5E42"/>
<path d="M16.308 3.74984C15.758 3.3415 14.9663 3.73317 14.9663 4.42484V4.50817C14.9663 5.48317 14.2663 6.38317 13.2913 6.48317C12.1663 6.59984 11.2163 5.7165 11.2163 4.6165V3.74984C11.2163 3.2915 10.8413 2.9165 10.383 2.9165H9.61634C9.15801 2.9165 8.78301 3.2915 8.78301 3.74984V4.6165C8.78301 5.27484 8.44134 5.85817 7.92467 6.18317C7.84967 6.23317 7.76634 6.27484 7.68301 6.3165C7.60801 6.35817 7.52467 6.3915 7.43301 6.4165C7.33301 6.44984 7.22467 6.47484 7.10801 6.48317C6.97467 6.49984 6.84134 6.49984 6.70801 6.48317C6.59134 6.47484 6.48301 6.44984 6.38301 6.4165C6.29967 6.3915 6.21634 6.35817 6.13301 6.3165C6.04967 6.27484 5.96634 6.23317 5.89134 6.18317C5.36634 5.8165 5.03301 5.18317 5.03301 4.50817V4.42484C5.03301 3.78317 4.34967 3.39984 3.80801 3.67484C3.79967 3.68317 3.79134 3.68317 3.78301 3.6915C3.74967 3.70817 3.72467 3.72484 3.69134 3.74984C3.66634 3.77484 3.63301 3.7915 3.60801 3.8165C3.37467 3.99984 3.16634 4.20817 2.99134 4.43317C2.89967 4.53317 2.82467 4.6415 2.75801 4.74984C2.74967 4.75817 2.74134 4.7665 2.73301 4.78317C2.65801 4.8915 2.59134 5.0165 2.53301 5.13317C2.51634 5.14984 2.50801 5.15817 2.50801 5.17484C2.45801 5.27484 2.40801 5.37484 2.37467 5.48317C2.34967 5.52484 2.34134 5.55817 2.32467 5.59984C2.27467 5.72484 2.24134 5.84984 2.20801 5.97484C2.17467 6.0915 2.14967 6.2165 2.13301 6.3415C2.11634 6.43317 2.10801 6.52484 2.09967 6.62484C2.09134 6.7415 2.08301 6.85817 2.08301 6.97484V14.2748C2.08301 16.5165 3.89967 18.3332 6.14134 18.3332H13.858C16.0997 18.3332 17.9163 16.5165 17.9163 14.2748V6.97484C17.9163 5.64984 17.283 4.4915 16.308 3.74984ZM9.99967 14.5165H6.13301C5.79134 14.5165 5.50801 14.2332 5.50801 13.8915C5.50801 13.5415 5.79134 13.2582 6.13301 13.2582H9.99967C10.3497 13.2582 10.6247 13.5415 10.6247 13.8915C10.6247 14.2332 10.3497 14.5165 9.99967 14.5165ZM12.3163 11.4248H6.13301C5.79134 11.4248 5.50801 11.1415 5.50801 10.7998C5.50801 10.4498 5.79134 10.1665 6.13301 10.1665H12.3163C12.6663 10.1665 12.9497 10.4498 12.9497 10.7998C12.9497 11.1415 12.6663 11.4248 12.3163 11.4248Z" fill="#DA5E42"/>
</svg>
