<svg width="14" height="14" viewBox="0 0 14 14" fill="none" xmlns="http://www.w3.org/2000/svg">
<path d="M5.34349 6.34067C5.28516 6.33484 5.21516 6.33484 5.15099 6.34067C3.76266 6.294 2.66016 5.1565 2.66016 3.7565C2.66016 2.32734 3.81516 1.1665 5.25016 1.1665C6.67932 1.1665 7.84016 2.32734 7.84016 3.7565C7.83432 5.1565 6.73182 6.294 5.34349 6.34067Z" stroke="#9A9EA4" stroke-width="1.2" stroke-linecap="round" stroke-linejoin="round"/>
<path d="M9.5729 2.3335C10.7046 2.3335 11.6146 3.24933 11.6146 4.37516C11.6146 5.47766 10.7396 6.376 9.64874 6.41683C9.60207 6.411 9.54957 6.411 9.49707 6.41683" stroke="#9A9EA4" stroke-width="1.2" stroke-linecap="round" stroke-linejoin="round"/>
<path d="M2.42691 8.4935C1.01525 9.4385 1.01525 10.9785 2.42691 11.9177C4.03108 12.991 6.66191 12.991 8.26608 11.9177C9.67775 10.9727 9.67775 9.43266 8.26608 8.4935C6.66775 7.426 4.03691 7.426 2.42691 8.4935Z" stroke="#9A9EA4" stroke-width="1.2" stroke-linecap="round" stroke-linejoin="round"/>
<path d="M10.6982 11.6665C11.1182 11.579 11.5149 11.4098 11.8416 11.159C12.7516 10.4765 12.7516 9.35067 11.8416 8.66817C11.5207 8.42317 11.1299 8.25984 10.7157 8.1665" stroke="#9A9EA4" stroke-width="1.2" stroke-linecap="round" stroke-linejoin="round"/>
</svg>
