<svg width="20" height="20" viewBox="0 0 20 20" fill="none" xmlns="http://www.w3.org/2000/svg">
<path d="M13.492 1.6665H6.50866C3.47533 1.6665 1.66699 3.47484 1.66699 6.50817V13.4915C1.66699 16.5248 3.47533 18.3332 6.50866 18.3332H13.492C16.5253 18.3332 18.3337 16.5248 18.3337 13.4915V6.50817C18.3337 3.47484 16.5253 1.6665 13.492 1.6665ZM8.30866 12.4165L6.43366 14.2915C6.30866 14.4165 6.15033 14.4748 5.99199 14.4748C5.83366 14.4748 5.66699 14.4165 5.55033 14.2915L4.92533 13.6665C4.67533 13.4248 4.67533 13.0248 4.92533 12.7832C5.16699 12.5415 5.55866 12.5415 5.80866 12.7832L5.99199 12.9665L7.42533 11.5332C7.66699 11.2915 8.05866 11.2915 8.30866 11.5332C8.55033 11.7748 8.55033 12.1748 8.30866 12.4165ZM8.30866 6.58317L6.43366 8.45817C6.30866 8.58317 6.15033 8.6415 5.99199 8.6415C5.83366 8.6415 5.66699 8.58317 5.55033 8.45817L4.92533 7.83317C4.67533 7.5915 4.67533 7.1915 4.92533 6.94984C5.16699 6.70817 5.55866 6.70817 5.80866 6.94984L5.99199 7.13317L7.42533 5.69984C7.66699 5.45817 8.05866 5.45817 8.30866 5.69984C8.55033 5.9415 8.55033 6.3415 8.30866 6.58317ZM14.6337 13.8498H10.2587C9.91699 13.8498 9.63366 13.5665 9.63366 13.2248C9.63366 12.8832 9.91699 12.5998 10.2587 12.5998H14.6337C14.9837 12.5998 15.2587 12.8832 15.2587 13.2248C15.2587 13.5665 14.9837 13.8498 14.6337 13.8498ZM14.6337 8.0165H10.2587C9.91699 8.0165 9.63366 7.73317 9.63366 7.3915C9.63366 7.04984 9.91699 6.7665 10.2587 6.7665H14.6337C14.9837 6.7665 15.2587 7.04984 15.2587 7.3915C15.2587 7.73317 14.9837 8.0165 14.6337 8.0165Z" fill="#5392FB"/>
</svg>
