<svg width="20" height="20" viewBox="0 0 20 20" fill="none" xmlns="http://www.w3.org/2000/svg">
<path d="M17.6247 5.14183C17.283 4.9585 16.5663 4.76683 15.5913 5.45016L14.3663 6.31683C14.2747 3.72516 13.1497 2.7085 10.4163 2.7085H5.41634C2.56634 2.7085 1.45801 3.81683 1.45801 6.66683V13.3335C1.45801 15.2502 2.49967 17.2918 5.41634 17.2918H10.4163C13.1497 17.2918 14.2747 16.2752 14.3663 13.6835L15.5913 14.5502C16.108 14.9168 16.558 15.0335 16.9163 15.0335C17.2247 15.0335 17.4663 14.9418 17.6247 14.8585C17.9663 14.6835 18.5413 14.2085 18.5413 13.0168V6.9835C18.5413 5.79183 17.9663 5.31683 17.6247 5.14183ZM9.16634 9.4835C8.30801 9.4835 7.59967 8.7835 7.59967 7.91683C7.59967 7.05016 8.30801 6.35016 9.16634 6.35016C10.0247 6.35016 10.733 7.05016 10.733 7.91683C10.733 8.7835 10.0247 9.4835 9.16634 9.4835Z" fill="#5392FB"/>
</svg>
