<svg width="20" height="20" viewBox="0 0 20 20" fill="none" xmlns="http://www.w3.org/2000/svg">
<path d="M13.492 1.6665H6.50866C3.47533 1.6665 1.66699 3.47484 1.66699 6.50817V13.4832C1.66699 16.5248 3.47533 18.3332 6.50866 18.3332H13.4837C16.517 18.3332 18.3253 16.5248 18.3253 13.4915V6.50817C18.3337 3.47484 16.5253 1.6665 13.492 1.6665ZM12.217 11.4415L11.1503 12.0582L10.0837 12.6748C8.70866 13.4665 7.58366 12.8165 7.58366 11.2332V9.99984V8.7665C7.58366 7.17484 8.70866 6.53317 10.0837 7.32484L11.1503 7.9415L12.217 8.55817C13.592 9.34984 13.592 10.6498 12.217 11.4415Z" fill="#9A9EA4"/>
</svg>
